<svg
  width="1200"
  height="630"
  viewBox="0 0 1200 630"
  fill="none"
  xmlns="http://www.w3.org/2000/svg"
>
  <defs>
    <linearGradient
      id="bg"
      x1="0"
      x2="1200"
      y1="0"
      y2="630"
      gradientUnits="userSpaceOnUse"
    >
      <stop stop-color="#FFF8F2" />
      <stop offset="0.52" stop-color="#FCE7F3" />
      <stop offset="1" stop-color="#E0F2FE" />
    </linearGradient>
    <filter id="shadow" x="-20%" y="-20%" width="140%" height="140%">
      <feDropShadow
        dx="0"
        dy="18"
        stdDeviation="18"
        flood-color="#211A17"
        flood-opacity="0.18"
      />
    </filter>
  </defs>
  <rect width="1200" height="630" fill="url(#bg)" />
  <rect
    x="64"
    y="76"
    width="1072"
    height="478"
    rx="44"
    fill="#FFFDF9"
    stroke="#211A17"
    stroke-width="6"
    filter="url(#shadow)"
  />
  <g transform="translate(112 138) scale(1.7)">
    <rect x="5" y="5" width="110" height="110" rx="30" fill="#FFF8F2" />
    <rect
      x="5"
      y="5"
      width="110"
      height="110"
      rx="30"
      stroke="#211A17"
      stroke-width="7"
    />
    <path
      d="M31 79V38h32c15 0 25 9 25 21s-10 20-25 20H48V66h15c6 0 9-3 9-7s-3-7-9-7H48v27H31Z"
      fill="#211A17"
    />
    <circle
      cx="84"
      cy="82"
      r="15"
      fill="#F472B6"
      stroke="#211A17"
      stroke-width="5"
    />
    <path
      d="M76 82h16M84 74v16"
      stroke="#FFF8F2"
      stroke-width="4"
      stroke-linecap="round"
    />
  </g>
  <text
    x="340"
    y="210"
    fill="#211A17"
    font-family="Inter, ui-sans-serif, system-ui, -apple-system, BlinkMacSystemFont, 'Segoe UI', sans-serif"
    font-size="92"
    font-weight="900"
  >ProMapper</text>
  <text
    x="346"
    y="284"
    fill="#5F5550"
    font-family="Inter, ui-sans-serif, system-ui, -apple-system, BlinkMacSystemFont, 'Segoe UI', sans-serif"
    font-size="38"
    font-weight="700"
  >Project maps from messy conversations</text>
  <text
    x="346"
    y="370"
    fill="#211A17"
    font-family="Inter, ui-sans-serif, system-ui, -apple-system, BlinkMacSystemFont, 'Segoe UI', sans-serif"
    font-size="34"
    font-weight="800"
  >Transcript • Summary • Actions • Topic Map</text>
  <rect
    x="346"
    y="420"
    width="260"
    height="70"
    rx="28"
    fill="#F472B6"
    stroke="#211A17"
    stroke-width="4"
  />
  <text
    x="386"
    y="466"
    fill="#FFF8F2"
    font-family="Inter, ui-sans-serif, system-ui, -apple-system, BlinkMacSystemFont, 'Segoe UI', sans-serif"
    font-size="30"
    font-weight="900"
  >promapper.app</text>
</svg>
